<svg id="Layer_1" data-name="Layer 1" xmlns="http://www.w3.org/2000/svg" viewBox="0 0 698.9 980.66"><g id="ID_17" data-name="ID 17"><path d="M209,373.39c-3.57,2.53-15.52,11.69-18.35,27.51-3.87,21.69,11.85,42.1,27.21,48,.8.31,0,0,18,3.37,18.54,3.5,21.73,4.31,27.52,4,5.38-.31,13.3-.78,20.79-5.81,12.44-8.35,14.88-23.37,16.2-31.49,1.45-8.95,3-18.28-2.75-26.9-1.19-1.8-4.1-5.71-18-11.93s-29-12.95-49.53-11.31A81.45,81.45,0,0,0,209,373.39Z" transform="translate(-164.72 -45.83)" fill="#fff" stroke="#231f20" stroke-miterlimit="10"/><path d="M254.25,394A20.4,20.4,0,0,0,246,404.06c-1.7,4.7-1,8.73-.46,11.92a33.92,33.92,0,0,0,8.25,16.51" transform="translate(-164.72 -45.83)" fill="none" stroke="#231f20" stroke-miterlimit="10"/><path d="M235.45,391.68c2,.58,6.56,2.2,8.71,6.42,1.05,2,1,4.5,1,9.34-.09,6.56-.13,9.84-1.43,12.67a18.74,18.74,0,0,1-8.71,8.71" transform="translate(-164.72 -45.83)" fill="none" stroke="#231f20" stroke-miterlimit="10"/></g><g id="ID_16" data-name="ID 16"><path d="M232,304.6c-13.55,7.4-17.19,22.76-17.43,23.85-.37,1.67-3.36,16.22,5.5,28.43,6.21,8.55,14.57,10.9,31.19,15.59,13.92,3.93,26.26,7.41,41.27,3.67,8.41-2.09,20.34-5.06,24.77-15.59,5.05-12-4-25.25-5.51-27.52-4.47-6.55-10.08-10.25-16.51-13.76C272.23,306.71,250.15,294.66,232,304.6Z" transform="translate(-164.72 -45.83)" fill="#fff" stroke="#231f20" stroke-miterlimit="10"/><path d="M271.12,366.22l-6.42-13.76" transform="translate(-164.72 -45.83)" fill="none" stroke="#231f20" stroke-miterlimit="10"/><path d="M278.91,319l-11.46,12.38" transform="translate(-164.72 -45.83)" fill="none" stroke="#231f20" stroke-miterlimit="10"/><path d="M256.9,317.61A35.06,35.06,0,0,1,265.61,335c.88,5,1.92,11-1.37,15.59-1.76,2.45-4.06,3.54-7.34,8.26a38.82,38.82,0,0,0-2.75,4.58" transform="translate(-164.72 -45.83)" fill="none" stroke="#231f20" stroke-miterlimit="10"/></g><g id="ID_15" data-name="ID 15"><path d="M266.76,235c19.82-.05,51.93,9.27,61.54,35.89,4.83,13.37,5,33.86-6.41,42.31-6.07,4.51-14.39,3.49-30.77,1.28-23.23-3.13-38.41-5.18-48.72-17.94a43,43,0,0,1-9-23.08c-.3-3.27-2-21.81,10.26-32.05C251.17,235.19,260.23,235,266.76,235Z" transform="translate(-164.72 -45.83)" fill="#fff" stroke="#231f20" stroke-miterlimit="10"/><path d="M295.36,259.52a35,35,0,0,0-8.71,6,21.36,21.36,0,0,0-5.5,6.88c-.79,1.71-3.06,6.61-.92,11.92a14.12,14.12,0,0,0,7.34,7.34" transform="translate(-164.72 -45.83)" fill="none" stroke="#231f20" stroke-miterlimit="10"/><path d="M275.64,253.1a6.23,6.23,0,0,0,.46,4.12c1.07,2,2.93,2.09,4.59,4.13a9.76,9.76,0,0,1,1.83,4.59c1.08,5.26.08,15.5-6.88,18.8a11.49,11.49,0,0,1-6.42.92" transform="translate(-164.72 -45.83)" fill="none" stroke="#231f20" stroke-miterlimit="10"/></g><g id="ID_14" data-name="ID 14"><path d="M286.26,162.42c19.81,0,51.92,9.27,61.53,35.9,4.83,13.36,5,33.85-6.41,42.31-6.07,4.5-14.38,3.49-30.77,1.28-23.23-3.14-38.41-5.18-48.71-17.95a42.88,42.88,0,0,1-9-23.08c-.3-3.26-2-21.8,10.26-32C270.66,162.59,279.73,162.44,286.26,162.42Z" transform="translate(-164.72 -45.83)" fill="#fff" stroke="#231f20" stroke-miterlimit="10"/><path d="M290.73,212.05l12.38-2.76" transform="translate(-164.72 -45.83)" fill="none" stroke="#231f20" stroke-miterlimit="10"/><path d="M303.57,186.36a8.18,8.18,0,0,0-.92,5c.43,2.46,1.93,2.82,3,5.5,1.24,3.27.43,6.51,0,8.26-.88,3.52-2.13,3.86-2.49,6.42-.25,1.78-.05,4.53,2.49,8.25" transform="translate(-164.72 -45.83)" fill="none" stroke="#231f20" stroke-miterlimit="10"/><path d="M317.78,196c-1,.47-2,.93-3.21,1.37a40.83,40.83,0,0,1-6.42,1.84" transform="translate(-164.72 -45.83)" fill="none" stroke="#231f20" stroke-miterlimit="10"/></g><g id="ID_13" data-name="ID 13"><path d="M290.1,149.57c-6.52-17.36,17.07-40.24,24.76-47.69,6.51-6.32,14.95-14.28,24.76-12.84,3.14.45,7.85,2.08,16.51,12.84a110.08,110.08,0,0,1,22.93,51.36c2.19,14.85,3.9,26.47-3.67,34.85-4.54,5-12.4,10.16-19.26,8.26-5.72-1.59-8.54-7.38-10.09-10.09C332.18,161.94,297.12,168.3,290.1,149.57Z" transform="translate(-164.72 -45.83)" fill="#fff" stroke="#231f20" stroke-miterlimit="10"/><path d="M317.08,138.09a20.24,20.24,0,0,1,1.38-9.63c4.37-10.6,16.62-13.06,17.88-13.3" transform="translate(-164.72 -45.83)" fill="none" stroke="#231f20" stroke-miterlimit="10"/></g><g id="ID_12" data-name="ID 12"><path d="M385.64,69.87c13.07-5.52,19.61-8.28,25.64-7.69,9.48.93,18.52,7.29,23.08,15.39,1.37,2.43,3.34,6.79,1.28,32.05-2.07,25.49-5,32.77-6.41,35.9-3.77,8.51-7.58,17.09-15.38,19.23-9.16,2.5-18.3-5.38-26.93-12.82s-20.62-17.8-24.36-35.9c-.75-3.66-5.09-26.65,7.7-38.46C372.63,75.37,377,73.54,385.64,69.87Z" transform="translate(-164.72 -45.83)" fill="#fff" stroke="#231f20" stroke-miterlimit="10"/><path d="M382.15,91.43a64.37,64.37,0,0,1,33.48-4.59" transform="translate(-164.72 -45.83)" fill="none" stroke="#231f20" stroke-miterlimit="10"/></g><g id="ID_11" data-name="ID 11"><path d="M458.72,49.36c7.44-2.23,22.93-5.54,43.59,0a29.66,29.66,0,0,1,11.58,4.82c8.37,5.86,11,14.38,11.93,17.43,1.27,4.32,1.73,9,.91,16.51C526.2,93,523.79,111.6,509.31,134c-9.71,15-15.62,17.46-18.35,18.34a27.34,27.34,0,0,1-15.59,0c-10.69-2.84-16.62-11.11-21.1-17.42-7.27-10.27-9.62-19.26-13.75-35.77-5-20-7.42-30.15-2.76-37.61C442.29,54.28,450.26,51.89,458.72,49.36Z" transform="translate(-164.72 -45.83)" fill="#fff" stroke="#231f20" stroke-miterlimit="10"/><path d="M461.71,74.52a72.72,72.72,0,0,1,14.22-2.3A73.82,73.82,0,0,1,500.69,75" transform="translate(-164.72 -45.83)" fill="none" stroke="#231f20" stroke-miterlimit="10"/></g><g id="ID_21" data-name="ID 21"><path d="M543.24,52.35c6.47-.31,14.19-.64,22.93-.92,20.38-.64,26.93-.4,34.86,1.84,7.38,2.08,15.13,4.38,18.34,11,2.27,4.68,1.1,9.11-.92,17.43-7.69,31.72-4.94,25.9-8.25,35.77-6.14,18.25-9.37,27.49-17.43,33a30.4,30.4,0,0,1-17.43,5.5c-9.35-.13-15.92-5-20.17-8.25-11-8.36-15.49-18.93-20.18-30.27-6.51-15.71-10.81-26.09-8-39.18C530,64.92,538.7,56.24,543.24,52.35Z" transform="translate(-164.72 -45.83)" fill="#fff" stroke="#231f20" stroke-miterlimit="10"/><path d="M554.57,73.94a168.57,168.57,0,0,1,17.43,0,165.25,165.25,0,0,1,20.17,2.3" transform="translate(-164.72 -45.83)" fill="none" stroke="#231f20" stroke-miterlimit="10"/></g><g id="ID_22" data-name="ID 22"><path d="M639.55,65.19a60.47,60.47,0,0,1,27.51,2.75c7.13,2.48,18.66,6.5,22.93,16.51,1.25,2.93,2.19,7.1-1.83,22.93-5.54,21.77-9.17,36.08-22,46.78-3.81,3.16-9.8,8-18.35,8.25a27.12,27.12,0,0,1-16.51-5.5c-14.42-10.54-14.61-31.73-14.67-38.52,0-4.91.55-1.41,3.67-25.69,1.12-8.73,1.52-12.93,4.58-17.42C629,69.19,635.41,66.47,639.55,65.19Z" transform="translate(-164.72 -45.83)" fill="#fff" stroke="#231f20" stroke-miterlimit="10"/><path d="M641.74,84.51a79.65,79.65,0,0,1,13.76,1.38,80.7,80.7,0,0,1,21.55,7.33" transform="translate(-164.72 -45.83)" fill="none" stroke="#231f20" stroke-miterlimit="10"/></g><g id="ID_23" data-name="ID 23"><path d="M735.85,98.21a94.57,94.57,0,0,1,13.76,14.67c5.33,7.05,11.93,15.8,13.76,28.44.89,6.17,2.13,14.73-2.75,21.09-4.68,6.1-10,3.73-22,9.17-13.94,6.34-12.92,12.37-27.52,19.26-8.13,3.84-17,8-24.77,4.59-11.59-5.1-12.53-24.47-12.84-30.27-1.05-20.32,8.6-35.3,18.35-50.44,7.67-11.92,12.27-14.92,15.59-16.51C719.13,92.59,731.45,96.55,735.85,98.21Z" transform="translate(-164.72 -45.83)" fill="#fff" stroke="#231f20" stroke-miterlimit="10"/><path d="M727.26,118.63a56.8,56.8,0,0,1,8.71,4.58c4.93,3.17,7.92,5.09,9.63,8.72.65,1.36,2.25,5.37.46,11.46" transform="translate(-164.72 -45.83)" fill="none" stroke="#231f20" stroke-miterlimit="10"/></g><g id="ID_24" data-name="ID 24"><path d="M778.44,178.21c7.22,5.63,7.75,15.37,8.26,24.77.41,7.47.72,21.63-7.34,28.43-2.25,1.9-3.7,2.12-11,4.59-17,5.74-17.24,7.26-26.6,10.08-14.44,4.35-21.77,6.67-31.19,4.59-4.23-.94-12.31-2.72-17.42-10.09-6-8.6-3.44-19.15-2.76-22,4.16-17.37,21-26.46,34.86-33.94,14.31-7.73,25.74-9.7,33.93-10.09C766.56,174.2,773,174,778.44,178.21Z" transform="translate(-164.72 -45.83)" fill="#fff" stroke="#231f20" stroke-miterlimit="10"/><path d="M743.86,196.4c-5.12,4.17-6.05,7.43-6,9.63.11,2.71,1.74,3.06,2.75,7.34a18.6,18.6,0,0,1-.45,10.55,17.63,17.63,0,0,1-3.21,5.5" transform="translate(-164.72 -45.83)" fill="none" stroke="#231f20" stroke-miterlimit="10"/><path d="M727.36,206a7.7,7.7,0,0,1,11,9.17" transform="translate(-164.72 -45.83)" fill="none" stroke="#231f20" stroke-miterlimit="10"/><path d="M755.33,222.08l-14.13-3.71" transform="translate(-164.72 -45.83)" fill="none" stroke="#231f20" stroke-miterlimit="10"/></g><g id="ID_25" data-name="ID 25"><path d="M798.71,239.77c7.21,5.62,7.74,15.37,8.26,24.76.4,7.47.72,21.64-7.34,28.43-2.26,1.9-3.7,2.12-11,4.59-17,5.74-17.23,7.27-26.6,10.09-14.43,4.35-21.76,6.67-31.18,4.58-4.23-.93-12.31-2.72-17.43-10.09-6-8.6-3.43-19.15-2.75-22,4.16-17.37,21-26.46,34.85-33.93,14.32-7.73,25.75-9.71,33.94-10.09C786.83,235.75,793.3,235.54,798.71,239.77Z" transform="translate(-164.72 -45.83)" fill="#fff" stroke="#231f20" stroke-miterlimit="10"/><path d="M766.15,257.59a13.94,13.94,0,0,0-4.13,3.67,14.71,14.71,0,0,0-2.75,7.8c-.65,7.94,4.63,10.64,3.67,16.05-.4,2.24-2,5.45-7.8,8.71" transform="translate(-164.72 -45.83)" fill="none" stroke="#231f20" stroke-miterlimit="10"/><path d="M745.51,262.18c6.41,1.89,9.67,4.92,11.46,7.34,5,6.69,2.9,14.35,8.26,17.88a10.94,10.94,0,0,0,7.34,1.38" transform="translate(-164.72 -45.83)" fill="none" stroke="#231f20" stroke-miterlimit="10"/></g><g id="ID_26" data-name="ID 26"><path d="M821.64,308.55c8.76,6.88,7.09,21.59,6.42,27.52-.69,6.1-2.19,19.37-11.92,25.68-3.57,2.31-4.75,1.43-15.59,3.67-16.74,3.46-17.4,6.3-30.27,8.26-6.75,1-14.37,2.11-23.85,0-6.85-1.53-12.87-2.57-17.43-7.34-7-7.31-6.88-18.95-4.58-26.6,3.72-12.4,14.5-18.47,25.68-24.76,14.72-8.29,27.81-9.91,36.69-11a72.9,72.9,0,0,1,24.76.92C816.54,306,819.09,306.55,821.64,308.55Z" transform="translate(-164.72 -45.83)" fill="#fff" stroke="#231f20" stroke-miterlimit="10"/><path d="M764.14,318c1.25.53,12.13,5.36,15.13,17.43A26.08,26.08,0,0,1,771,361.12" transform="translate(-164.72 -45.83)" fill="none" stroke="#231f20" stroke-miterlimit="10"/><path d="M783.4,317.09a72.3,72.3,0,0,0-3.21,11c-.93,4.49-5,24.31,2.75,28.89a7.69,7.69,0,0,0,4.59.92" transform="translate(-164.72 -45.83)" fill="none" stroke="#231f20" stroke-miterlimit="10"/></g><g id="ID_27" data-name="ID 27"><path d="M829,370c13.65,6.58,18.38,24.79,18.34,36.69a46,46,0,0,1-10.09,28.43c-5.67,6.9-11.9,10.05-17.42,12.84a71.66,71.66,0,0,1-42.19,7.34c-9.8-1.37-20.8-2.91-29.35-11.93-10.9-11.49-10.37-27.28-10.09-35.77.22-6.76.5-12.78,4.58-18.34,2.25-3.07,5.8-6.2,21.1-11a196.68,196.68,0,0,1,34.39-7.56C815.21,368.54,823.69,367.46,829,370Z" transform="translate(-164.72 -45.83)" fill="#fff" stroke="#231f20" stroke-miterlimit="10"/><path d="M802.1,394.82a23.37,23.37,0,0,0-7.34,9.63c-.65,1.61-3.69,9.13,0,17a20.09,20.09,0,0,0,7.34,8.25" transform="translate(-164.72 -45.83)" fill="none" stroke="#231f20" stroke-miterlimit="10"/><path d="M787,397.11a14.91,14.91,0,0,1,5.51,4.59c4.55,6.34,3.24,16.12-1.84,22a18.1,18.1,0,0,1-7.33,5" transform="translate(-164.72 -45.83)" fill="none" stroke="#231f20" stroke-miterlimit="10"/></g><g id="ID_28" data-name="ID 28"><path d="M854,468.38c8.92,18.95,2.44,37.45.69,42-1.93,5-5.3,13.3-13.76,19.26-5.45,3.84-10.55,4.95-16.51,6.19-6.83,1.42-19.41,4-34.39-.69-7-2.19-19.86-6.26-28.21-19.26s-6.72-26.8-6.19-30.27c.75-4.83,1.91-13.4,8.95-20.63a31.66,31.66,0,0,1,18-9.13c2.76-.34,2.92.06,8.11.18,8.61.2,19.85.46,30.26-4.81,5.7-2.88,5.12-4.37,8.26-4.82C839,445,849.43,458.73,854,468.38Z" transform="translate(-164.72 -45.83)" fill="#fff" stroke="#231f20" stroke-miterlimit="10"/><path d="M817.16,475.29a20.27,20.27,0,0,0-6,6A20,20,0,0,0,808,492.72a19.55,19.55,0,0,0,3.21,10.09,18.39,18.39,0,0,0,6,5.5" transform="translate(-164.72 -45.83)" fill="none" stroke="#231f20" stroke-miterlimit="10"/><path d="M800.19,475.75a27,27,0,0,1,6,7.8c1.58,3.14,5.39,10.68,1.83,17.43-3.14,6-10.05,7.51-11.46,7.79" transform="translate(-164.72 -45.83)" fill="none" stroke="#231f20" stroke-miterlimit="10"/></g><g id="ID_38" data-name="ID 38"><path d="M794.8,595.84c4.56.34,11.48.72,20,.69,12.33,0,13.91-.93,18.58,0,14.58,2.9,23.07,16.26,24.07,17.88,7.38,12,5.91,24,4.82,33-1.23,10.09-2.65,21.77-11.7,28.89-7.15,5.64-15.2,5.36-30.95,4.82-16.73-.58-28.5-4.81-37.84-8.26-10.11-3.73-15.23-5.69-18.57-10.31-5.77-8-4.25-18.12-2.75-28.21,1.32-8.83,2.53-17,8.94-24.76C778.14,598.94,790.51,596.49,794.8,595.84Z" transform="translate(-164.72 -45.83)" fill="#fff" stroke="#231f20" stroke-miterlimit="10"/><path d="M822,625.1a17.84,17.84,0,0,0-7.34,6c-3.45,4.92-5.1,13-.92,18.8a15,15,0,0,0,8.26,5.5" transform="translate(-164.72 -45.83)" fill="none" stroke="#231f20" stroke-miterlimit="10"/><path d="M809.13,621.89a31.31,31.31,0,0,1,2.75,5c1.19,2.78,3.64,8.51,2.29,14.68-1.84,8.39-9.63,12.58-11,13.3" transform="translate(-164.72 -45.83)" fill="none" stroke="#231f20" stroke-miterlimit="10"/></g><g id="ID_37" data-name="ID 37"><path d="M835.39,690.08c10.91,9.79,13.31,22.74,13.76,25.45,3.91,23.72-13.92,40.85-16.51,43.34-3.83,3.68-9.95,9.56-19.26,11-5,.77-7.51-.23-24.08-5.5-23.88-7.6-27-8.18-32.33-12.39-3.57-2.79-9.58-7.51-13.07-15.82-6.43-15.32.81-30.7,4.81-39.21,3.26-6.92,6-12.73,12.39-16.51,6.16-3.64,12.36-3.41,24.07-2.06C813.62,681.67,827.85,683.31,835.39,690.08Z" transform="translate(-164.72 -45.83)" fill="#fff" stroke="#231f20" stroke-miterlimit="10"/><path d="M798.43,705.68a19.18,19.18,0,0,1,5.5,10.55c.22,1.37,1.43,9.09-4.13,14.67a16.46,16.46,0,0,1-11.46,4.59" transform="translate(-164.72 -45.83)" fill="none" stroke="#231f20" stroke-miterlimit="10"/><path d="M815.86,711.18a13.44,13.44,0,0,0-8.72,2.75c-5.58,4.55-4.93,13.19-4.58,17.89a35.23,35.23,0,0,0,2.29,10.09" transform="translate(-164.72 -45.83)" fill="none" stroke="#231f20" stroke-miterlimit="10"/></g><g id="ID_36" data-name="ID 36"><path d="M820.26,802.9c-1,16.59-15.15,26.65-19.26,29.58s-11.42,8.13-21.33,8.25c-5.79.07-12.57-3.39-26.14-10.32-13.92-7.11-18.55-11.07-21.32-13.75-4.13-4-6.87-6.63-9-11-7.1-14.95,2.18-31.71,4.82-36.46,3.12-5.64,6.34-11.44,13.07-14.45,6.05-2.69,12-1.8,21,.51,25.88,6.63,38.82,9.94,47.79,20.82C813,779.77,821.08,789.58,820.26,802.9Z" transform="translate(-164.72 -45.83)" fill="#fff" stroke="#231f20" stroke-miterlimit="10"/><path d="M788.67,791.63c-2,1.64-4.57,3.19-7.33,2.76-2.92-.46-4-2.81-5.51-2.3-2.17.73-2.45,6.31-1.83,10.09a19.93,19.93,0,0,0,4.13,9.17" transform="translate(-164.72 -45.83)" fill="none" stroke="#231f20" stroke-miterlimit="10"/><path d="M771.25,782.46a28,28,0,0,1,3.66,6.42c1.59,3.91,3.7,9.09,1.38,12.84-2.15,3.48-7.57,4.91-13.3,3.67" transform="translate(-164.72 -45.83)" fill="none" stroke="#231f20" stroke-miterlimit="10"/></g><g id="ID_35" data-name="ID 35"><path d="M797.89,857c2,11-4.28,22-11.38,28.12-14.45,12.53-34,6.58-38.21,5.29-15.81-4.81-23.86-16.68-28.32-23.25-5.36-7.91-11.45-16.88-8.73-27,2.85-10.65,13.5-15.53,15.08-16.23,11.65-5.12,23.18-.45,35.18,4.41C778.65,835.29,795.18,842,797.89,857Z" transform="translate(-164.72 -45.83)" fill="#fff" stroke="#231f20" stroke-miterlimit="10"/><path d="M790,864.21a36.18,36.18,0,0,1-4.13,6,38.73,38.73,0,0,1-17.42,11.46" transform="translate(-164.72 -45.83)" fill="none" stroke="#231f20" stroke-miterlimit="10"/></g><g id="ID_34" data-name="ID 34"><path d="M765.78,914.21c-.15,11.2-8.37,20.76-16.51,25.45-16.57,9.55-34.61,0-38.52-2.06-14.61-7.73-20.27-20.91-23.39-28.21-3.77-8.78-8-18.75-3.44-28.2,4.82-9.92,16.2-12.69,17.88-13.07,12.42-2.82,22.84,4,33.71,11C751,889.2,766,898.91,765.78,914.21Z" transform="translate(-164.72 -45.83)" fill="#fff" stroke="#231f20" stroke-miterlimit="10"/><path d="M753,922.06a42.52,42.52,0,0,1-6.66,7A43.14,43.14,0,0,1,734.74,936" transform="translate(-164.72 -45.83)" fill="none" stroke="#231f20" stroke-miterlimit="10"/></g><g id="ID_31" data-name="ID 31"><path d="M576.88,1024.34c-5.54.29-13.07.64-22,.92-14.61.46-16.4.23-18.34-.92-8.75-5.15-7.85-21.21-6.88-38.52,1.18-21.11,2.08-37.23,13.75-44.94.77-.51,10.05-6.44,19.27-3.21,5.07,1.78,7.76,5.51,11.92,11.46,1.39,2,7.91,11.51,12.38,27.06.49,1.69,1.7,9.84,4.13,26.14,1,7.07,1.54,10.68-.46,14.22C587.41,1022.28,580.15,1023.85,576.88,1024.34Z" transform="translate(-164.72 -45.83)" fill="#fff" stroke="#231f20" stroke-miterlimit="10"/><path d="M551.53,1015.86l19.72-.46" transform="translate(-164.72 -45.83)" fill="none" stroke="#231f20" stroke-miterlimit="10"/></g><g id="ID_41" data-name="ID 41"><path d="M514.51,948.22c5.39,12.13,7,24.44,8.72,37.6,2.06,16.22,3.1,24.47,0,29.81-1.13,1.94-4.15,7.15-10.55,9.63-2.8,1.09-4,.69-12.84.46-13.92-.36-15.73.48-22-.92-5.47-1.21-8.2-1.81-10.55-3.67-7.71-6-6.41-19.24-5-33,1.12-11.29,2.52-24,11-37.14,4.55-7.05,9-14,17.43-15.59a22.57,22.57,0,0,1,19.26,6A21.19,21.19,0,0,1,514.51,948.22Z" transform="translate(-164.72 -45.83)" fill="#fff" stroke="#231f20" stroke-miterlimit="10"/><path d="M482,1014.25c3.07.71,6.44,1.35,10.09,1.84a110,110,0,0,0,11,.92" transform="translate(-164.72 -45.83)" fill="none" stroke="#231f20" stroke-miterlimit="10"/></g><g id="ID_42" data-name="ID 42"><path d="M438.84,1015.63a127.59,127.59,0,0,1-24.76-3.21c-12-2.76-14.34-5.1-15.13-6-6.8-7.39-3.59-20.37-1.38-29.35,2.4-9.75,6.28-16.18,11.47-24.77,5.65-9.37,8.71-14.29,15.13-17.88,2.73-1.53,9.64-5.39,17.88-3.21,9.44,2.5,13.6,11,14.22,12.38,1.16,2.48,1.55,6.42,2.29,14.22a141.45,141.45,0,0,1,.92,16.51,87.13,87.13,0,0,1-1.83,19.26c-1.48,6.72-2.24,10.17-5,13.76C448.22,1013,442,1014.91,438.84,1015.63Z" transform="translate(-164.72 -45.83)" fill="#fff" stroke="#231f20" stroke-miterlimit="10"/><path d="M414,998.25a29.24,29.24,0,0,0,20.17,4.59" transform="translate(-164.72 -45.83)" fill="none" stroke="#231f20" stroke-miterlimit="10"/></g><g id="ID_45" data-name="ID 45"><path d="M259.15,886.31c-.87-.72-16.53-13.95-13.3-30.27,1.45-7.33,6-11.72,12.38-17.89,11.64-11.24,24.16-15,31.19-17,8.66-2.46,13.79-3.84,20.18-1.83,1.13.36,10.77,3.57,15.13,13.3,3,6.68,1.86,12.79.92,17.89-1.51,8.13-5,13.62-7.8,17.88a70.54,70.54,0,0,1-16.51,17.43c-6.21,4.71-9.32,7.06-14.22,8.25C273.17,897.5,260.76,887.63,259.15,886.31Z" transform="translate(-164.72 -45.83)" fill="#fff" stroke="#231f20" stroke-miterlimit="10"/><path d="M278.17,880.63a32.49,32.49,0,0,0-10.54-6c-2.28-.75-3.79-.94-5.05-2.29-2.3-2.47-1.78-6.73-.92-10.09" transform="translate(-164.72 -45.83)" fill="none" stroke="#231f20" stroke-miterlimit="10"/></g><g id="ID_46" data-name="ID 46"><path d="M220.63,765.24a104,104,0,0,1,18.8-8.72A95.14,95.14,0,0,1,272,751c11.72.23,17.58.35,22.93,4.59,10.31,8.16,9.5,24.24,9.17,30.72-.29,5.75-.43,15.89-7.34,24.77a40.08,40.08,0,0,1-7.33,6.87c-5.32,4.11-16.43,12.47-33,15.14-10.1,1.62-19.78,3.17-28.89-2.29-8.61-5.16-11.83-13.65-16-24.77-3.59-9.43-6.36-16.74-3.67-25.22C210.55,772.12,217.48,767.19,220.63,765.24Z" transform="translate(-164.72 -45.83)" fill="#fff" stroke="#231f20" stroke-miterlimit="10"/><path d="M263.51,773a17.11,17.11,0,0,0-6.88,11c-.06.43-1.29,9.92,5,13.76a11.09,11.09,0,0,0,6.88,1.37" transform="translate(-164.72 -45.83)" fill="none" stroke="#231f20" stroke-miterlimit="10"/><path d="M242.41,783.12a16.66,16.66,0,0,1,9.17,3.67,16.44,16.44,0,0,1,2.76,22.47" transform="translate(-164.72 -45.83)" fill="none" stroke="#231f20" stroke-miterlimit="10"/></g><g id="ID_47" data-name="ID 47"><path d="M262.82,673.06c12.52,6.46,18.06,18.41,19.72,22.47a45.83,45.83,0,0,1,1.83,28.89c-1.47,5.59-4.29,18.65-14.21,22.93a17.6,17.6,0,0,1-6.88,1.38c-21.73.49-29,15.15-45.86,14.21a35.53,35.53,0,0,1-17.89-6.42c-15.44-10.41-17.91-29.07-18.8-35.77-1.09-8.19-2.48-18.74,3.67-28,1.72-2.59,5.91-7.88,24.76-14.22C233.41,670.41,248.11,665.47,262.82,673.06Z" transform="translate(-164.72 -45.83)" fill="#fff" stroke="#231f20" stroke-miterlimit="10"/><path d="M237,698.48a29.53,29.53,0,0,0-6.16,10.09c-1.39,3.9-3.25,9.1-.92,11.93,2.61,3.16,7.94.29,12.84,4.12a12,12,0,0,1,3.67,5" transform="translate(-164.72 -45.83)" fill="none" stroke="#231f20" stroke-miterlimit="10"/><path d="M220.25,705.36a22.28,22.28,0,0,1,6,3.67c4.92,4.25,9.86,12.4,7.34,19.72a13.39,13.39,0,0,1-3.21,5" transform="translate(-164.72 -45.83)" fill="none" stroke="#231f20" stroke-miterlimit="10"/></g><g id="ID_48" data-name="ID 48"><path d="M196.32,591.43a232.08,232.08,0,0,1,24.31-.46c11.62.38,17.53.63,22.93,3.21,10.85,5.2,15.85,15.2,17.88,19.26,4.72,9.42,5,17.8,5.05,22.93.13,7.83.29,16.64-5.51,23.39-3,3.48-6.19,4.82-12.38,7.34-14.56,5.91-19.36,2.62-37.14,7.79-7.81,2.27-9.59,3.69-14.22,3.21-8.67-.9-14.63-7.14-17.89-10.55a50.16,50.16,0,0,1-11.92-22.47c-1.6-6.53-6-24.31,5-39C180.34,595.62,191.8,592.42,196.32,591.43Z" transform="translate(-164.72 -45.83)" fill="#fff" stroke="#231f20" stroke-miterlimit="10"/><path d="M221.38,614.27a35.13,35.13,0,0,0-5,10.09c-1.75,5.64-4.07,12-.91,17.42.67,1.16,3,4.69,9.17,6.42" transform="translate(-164.72 -45.83)" fill="none" stroke="#231f20" stroke-miterlimit="10"/><path d="M207.16,616.56a40.13,40.13,0,0,1,4.59,6c2.69,4.28,5.47,8.7,5,13.76-.63,7.5-7.9,12.07-9.17,12.84" transform="translate(-164.72 -45.83)" fill="none" stroke="#231f20" stroke-miterlimit="10"/></g><g id="ID_18" data-name="ID 18"><path d="M229.21,453.18c18.65,1.39,28.18,2.2,38.53,8.26,5.7,3.34,13.13,7.69,17,16.51,6.15,14.14-1.68,28.91-4.59,34.39-2,3.71-8.35,15.37-22,22-14.83,7.21-29.06,4.07-45.4.46-11.09-2.45-16.63-3.68-21.1-7.8-12.74-11.75-9.7-33.58-7.8-47.24,1.66-11.85,2.53-18.09,7.8-22.93C198,451,208.49,451.65,229.21,453.18Z" transform="translate(-164.72 -45.83)" fill="#fff" stroke="#231f20" stroke-miterlimit="10"/><path d="M242.79,478.45c-1.57.69-7.71,3.63-9.17,9.63-1,4.12.69,7.64,3.21,12.84a47.29,47.29,0,0,0,7.79,11.46" transform="translate(-164.72 -45.83)" fill="none" stroke="#231f20" stroke-miterlimit="10"/><path d="M224.44,478.45A26,26,0,0,1,230,484c1,1.37,8.49,11.55,4.12,20.18-.63,1.26-2.6,4.61-7.79,6.88" transform="translate(-164.72 -45.83)" fill="none" stroke="#231f20" stroke-miterlimit="10"/></g><g id="ID_44" data-name="ID 44"><path d="M299.78,936.84c-.87-.71-16.54-13.94-13.3-30.26,1.45-7.33,6-11.73,12.38-17.89,11.63-11.24,24.16-15,31.18-17,8.67-2.46,13.8-3.84,20.18-1.83,1.14.36,10.78,3.57,15.14,13.3,3,6.68,1.86,12.79.91,17.88-1.5,8.14-5,13.62-7.79,17.89A70.54,70.54,0,0,1,342,936.39c-6.22,4.7-9.32,7.06-14.22,8.25C313.8,948,301.39,938.17,299.78,936.84Z" transform="translate(-164.72 -45.83)" fill="#fff" stroke="#231f20" stroke-miterlimit="10"/><path d="M319.31,932.09a35.51,35.51,0,0,1-5.5-4.73,38.75,38.75,0,0,1-9.58-18.53" transform="translate(-164.72 -45.83)" fill="none" stroke="#231f20" stroke-miterlimit="10"/></g><g id="ID_43" data-name="ID 43"><path d="M369.6,995c-2,0-24.09-1-32.56-17.42-5.16-10-2.45-20.35-.92-26.14,4.47-17,16.77-26,30.72-36.23,5.59-4.1,10.55-6.91,17-7.34,2.36-.16,10.27-.68,15.59,4.59,3.91,3.85,4.39,8.8,5.05,15.59.51,5.24.1,8.71-1.38,20.64-1.53,12.36-2.3,18.56-2.55,19.45-2,7.2-4.85,17.56-14,23.2C380.19,995.27,373.67,995.1,369.6,995Z" transform="translate(-164.72 -45.83)" fill="#fff" stroke="#231f20" stroke-miterlimit="10"/><path d="M377.68,978.48a35.56,35.56,0,0,1-7.25.17,38.69,38.69,0,0,1-19.51-7.36" transform="translate(-164.72 -45.83)" fill="none" stroke="#231f20" stroke-miterlimit="10"/></g><g id="ID_33" data-name="ID 33"><path d="M714.92,979.17a56.7,56.7,0,0,1-15.82,9.63c-6,2.42-21,8.4-32.33,2.07-8.18-4.56-10.5-13.82-15.14-32.33-2.89-11.56-5.73-23.51-1.37-37.15,1.94-6.07,4-12.5,9.63-15.14,9.39-4.38,21.84,5,31.64,12.39a82.83,82.83,0,0,1,22.7,26.14c4.69,8.52,9.3,17.2,6.19,26.14A20.67,20.67,0,0,1,714.92,979.17Z" transform="translate(-164.72 -45.83)" fill="#fff" stroke="#231f20" stroke-miterlimit="10"/><path d="M706.18,967.57a42.81,42.81,0,0,1-19,12.91" transform="translate(-164.72 -45.83)" fill="none" stroke="#231f20" stroke-miterlimit="10"/></g><g id="ID_32" data-name="ID 32"><path d="M652.32,1007.38c-3.43,1.25-8.65,3-15.13,4.81-13.83,3.79-20.77,5.34-26.83,3.44-8.8-2.76-13.5-10.42-15.13-13.07-2.31-3.74-4.06-8.85-2.07-35.08,1.94-25.5,4.31-29.14,6.88-31.65,5.16-5,14.7-9,23.39-5.5,2.9,1.17,5.13,3,10.32,9.63,6.58,8.44,11.3,14.49,16.51,25.45,7.06,14.88,11.51,24.24,7.79,33.71A22.67,22.67,0,0,1,652.32,1007.38Z" transform="translate(-164.72 -45.83)" fill="#fff" stroke="#231f20" stroke-miterlimit="10"/><path d="M638.35,997.28a42.05,42.05,0,0,1-8.64,4.28,43.14,43.14,0,0,1-13.26,2.53" transform="translate(-164.72 -45.83)" fill="none" stroke="#231f20" stroke-miterlimit="10"/></g><g id="ID_54" data-name="ID 54"><path d="M343.25,453.41c-2.43,1.73-10.58,8-12.51,18.76-2.64,14.79,8.08,28.71,18.56,32.74.55.21,0,0,12.3,2.29,12.65,2.39,14.82,2.94,18.77,2.71,3.67-.21,9.07-.53,14.18-4C403,500.26,404.7,490,405.6,484.48c1-6.11,2-12.47-1.88-18.35-.81-1.23-2.8-3.89-12.3-8.13s-19.8-8.84-33.78-7.72A55.63,55.63,0,0,0,343.25,453.41Z" transform="translate(-164.72 -45.83)" fill="#fff" stroke="#231f20" stroke-miterlimit="10"/><path d="M374.09,467.44a14,14,0,0,0-5.63,6.88,14.79,14.79,0,0,0-.31,8.14,23.13,23.13,0,0,0,5.63,11.25" transform="translate(-164.72 -45.83)" fill="none" stroke="#231f20" stroke-miterlimit="10"/><path d="M361.27,465.88c1.37.4,4.47,1.51,5.94,4.38.71,1.39.71,3.07.66,6.37-.06,4.47-.09,6.71-1,8.64a12.84,12.84,0,0,1-5.94,5.94" transform="translate(-164.72 -45.83)" fill="none" stroke="#231f20" stroke-miterlimit="10"/></g><g id="ID_55" data-name="ID 55"><path d="M357,507.83c12.71.94,19.21,1.49,26.27,5.63,3.89,2.27,8.95,5.24,11.57,11.26,4.19,9.64-1.15,19.71-3.13,23.45a34.27,34.27,0,0,1-15,15c-10.11,4.92-19.82,2.78-31,.32-7.56-1.67-11.34-2.51-14.39-5.32-8.69-8-6.62-22.9-5.32-32.21,1.13-8.09,1.72-12.34,5.32-15.64C335.72,506.34,342.88,506.78,357,507.83Z" transform="translate(-164.72 -45.83)" fill="#fff" stroke="#231f20" stroke-miterlimit="10"/><path d="M366.27,525.06c-1.06.47-5.25,2.47-6.25,6.56-.69,2.82.47,5.21,2.19,8.76a32.45,32.45,0,0,0,5.31,7.82" transform="translate(-164.72 -45.83)" fill="none" stroke="#231f20" stroke-miterlimit="10"/><path d="M353.76,525.06a17.39,17.39,0,0,1,3.75,3.75c.69.93,5.79,7.87,2.82,13.76a10.2,10.2,0,0,1-5.32,4.69" transform="translate(-164.72 -45.83)" fill="none" stroke="#231f20" stroke-miterlimit="10"/></g><g id="ID_53" data-name="ID 53"><path d="M365.84,441.28c-4.45-11.84,11.64-27.44,16.89-32.52,4.44-4.31,10.19-9.74,16.88-8.76,2.14.31,5.36,1.42,11.26,8.76a75,75,0,0,1,15.64,35c1.49,10.13,2.66,18-2.5,23.77-3.1,3.43-8.46,6.92-13.14,5.63-3.9-1.09-5.82-5-6.88-6.89C394.54,449.72,370.63,454.06,365.84,441.28Z" transform="translate(-164.72 -45.83)" fill="#fff" stroke="#231f20" stroke-miterlimit="10"/><path d="M384.24,433.46a13.89,13.89,0,0,1,.94-6.57c3-7.23,11.34-8.91,12.2-9.07" transform="translate(-164.72 -45.83)" fill="none" stroke="#231f20" stroke-miterlimit="10"/></g><g id="ID_52" data-name="ID 52"><path d="M430.16,376.92c8.91-3.77,13.37-5.66,17.48-5.25a21.24,21.24,0,0,1,15.74,10.49c.94,1.66,2.28,4.63.88,21.86-1.42,17.38-3.43,22.35-4.37,24.48-2.58,5.81-5.18,11.66-10.5,13.11-6.24,1.71-12.48-3.66-18.36-8.74S417,420.74,414.42,408.39c-.51-2.49-3.47-18.18,5.25-26.23C421.29,380.67,424.24,379.42,430.16,376.92Z" transform="translate(-164.72 -45.83)" fill="#fff" stroke="#231f20" stroke-miterlimit="10"/><path d="M427.78,388.61a44.76,44.76,0,0,1,15-3.44,43.72,43.72,0,0,1,7.82.32" transform="translate(-164.72 -45.83)" fill="none" stroke="#231f20" stroke-miterlimit="10"/></g><g id="ID_51" data-name="ID 51"><path d="M480,362.93c5.08-1.52,15.65-3.78,29.73,0a20.11,20.11,0,0,1,7.9,3.28,21.58,21.58,0,0,1,8.13,11.89c.87,2.94,1.18,6.11.63,11.26-.36,3.36-2,16-11.89,31.27-6.62,10.23-10.64,11.91-12.51,12.51a18.65,18.65,0,0,1-10.63,0c-7.29-1.94-11.33-7.57-14.39-11.88-5-7-6.56-13.13-9.38-24.4-3.41-13.63-5.05-20.55-1.88-25.64S474.23,364.65,480,362.93Z" transform="translate(-164.72 -45.83)" fill="#fff" stroke="#231f20" stroke-miterlimit="10"/><path d="M485,375.08a49,49,0,0,1,9.69-1.56,50.15,50.15,0,0,1,16.89,1.87" transform="translate(-164.72 -45.83)" fill="none" stroke="#231f20" stroke-miterlimit="10"/></g><g id="ID_61" data-name="ID 61"><path d="M537.64,365c4.41-.21,9.68-.43,15.63-.62,13.9-.44,18.37-.28,23.77,1.25,5,1.42,10.32,3,12.51,7.5,1.55,3.2.76,6.21-.62,11.89-5.25,21.63-3.37,17.66-5.63,24.39-4.18,12.45-6.39,18.75-11.89,22.52a20.69,20.69,0,0,1-11.88,3.75c-6.38-.09-10.86-3.41-13.76-5.63-7.47-5.7-10.56-12.9-13.76-20.64-4.44-10.71-7.37-17.79-5.43-26.71C528.57,373.53,534.54,367.62,537.64,365Z" transform="translate(-164.72 -45.83)" fill="#fff" stroke="#231f20" stroke-miterlimit="10"/><path d="M548.36,374.69a112.07,112.07,0,0,1,11.89,0A114.47,114.47,0,0,1,574,376.25" transform="translate(-164.72 -45.83)" fill="none" stroke="#231f20" stroke-miterlimit="10"/></g><g id="ID_62" data-name="ID 62"><path d="M603.32,373.72a41.27,41.27,0,0,1,18.76,1.88c4.86,1.69,12.73,4.43,15.64,11.26.85,2,1.49,4.84-1.25,15.63-3.78,14.85-6.26,24.61-15,31.9-2.59,2.16-6.67,5.47-12.51,5.63a18.52,18.52,0,0,1-11.25-3.75c-9.84-7.19-10-21.64-10-26.27,0-3.35.37-1,2.5-17.52.76-6,1-8.82,3.13-11.88A18.47,18.47,0,0,1,603.32,373.72Z" transform="translate(-164.72 -45.83)" fill="#fff" stroke="#231f20" stroke-miterlimit="10"/><path d="M604.81,383.9a54.48,54.48,0,0,1,24.08,5.94" transform="translate(-164.72 -45.83)" fill="none" stroke="#231f20" stroke-miterlimit="10"/></g><g id="ID_64" data-name="ID 64"><path d="M696.66,447.68C706.45,451,711.14,463,712.09,471a31.38,31.38,0,0,1-4.49,20.08c-3.28,5.14-7.24,7.78-10.75,10.12a48.79,48.79,0,0,1-28,8.43c-6.75-.12-14.32-.26-20.85-5.66-8.32-6.89-9.26-17.63-9.76-23.39-.41-4.6-.71-8.7,1.59-12.8,1.28-2.26,3.42-4.67,13.38-9.18a134.51,134.51,0,0,1,22.67-7.95C687.22,447.81,692.87,446.38,696.66,447.68Z" transform="translate(-164.72 -45.83)" fill="#fff" stroke="#231f20" stroke-miterlimit="10"/><path d="M680.5,466.68a16,16,0,0,0-4.18,7.12c-.31,1.15-1.74,6.49,1.4,11.49a13.69,13.69,0,0,0,5.64,5" transform="translate(-164.72 -45.83)" fill="none" stroke="#231f20" stroke-miterlimit="10"/><path d="M670.44,469.47a10.18,10.18,0,0,1,4.11,2.66c3.6,3.92,3.51,10.65.56,15.05a12.5,12.5,0,0,1-4.55,4" transform="translate(-164.72 -45.83)" fill="none" stroke="#231f20" stroke-miterlimit="10"/></g><g id="ID_65" data-name="ID 65"><path d="M721.66,512.22c7.59,12.1,4.72,25.16,3.91,28.36-.9,3.52-2.5,9.44-7.74,14.16-3.37,3-6.74,4.22-10.67,5.55-4.5,1.52-12.81,4.32-23.34,2.36-4.89-.92-14-2.61-20.67-10.73a30.34,30.34,0,0,1-6.68-20c.11-3.33.19-9.24,4.36-14.71a21.7,21.7,0,0,1,11.46-7.66c1.84-.45,2-.19,5.51-.54,5.84-.57,13.47-1.31,20.09-5.74,3.62-2.42,3.1-3.38,5.2-3.94C709.61,497.6,717.79,506.07,721.66,512.22Z" transform="translate(-164.72 -45.83)" fill="#fff" stroke="#231f20" stroke-miterlimit="10"/><path d="M697.3,516.93a13.66,13.66,0,0,0-4.78,12.55,13.35,13.35,0,0,0,3,6.57,12.59,12.59,0,0,0,4.49,3.23" transform="translate(-164.72 -45.83)" fill="none" stroke="#231f20" stroke-miterlimit="10"/><path d="M685.85,518.63a18.65,18.65,0,0,1,4.68,4.79c1.32,2,4.52,6.79,2.67,11.65-1.64,4.31-6.2,5.91-7.12,6.22" transform="translate(-164.72 -45.83)" fill="none" stroke="#231f20" stroke-miterlimit="10"/></g><g id="ID_63" data-name="ID 63"><path d="M673.15,398a65.26,65.26,0,0,1,8,11.15c3,5.24,6.66,11.74,6.77,20.45.06,4.25.13,10.15-3.73,14-3.71,3.71-7.12,1.63-15.7,4.24-10,3-9.84,7.22-20.32,10.58-5.84,1.87-12.19,3.9-17.15.89-7.39-4.48-6.3-17.66-6-21.61,1.09-13.83,9-23.1,16.89-32.47,6.25-7.38,9.63-9,12-9.78C662.34,392.75,670.32,396.52,673.15,398Z" transform="translate(-164.72 -45.83)" fill="#fff" stroke="#231f20" stroke-miterlimit="10"/><path d="M666.24,410.38a38.69,38.69,0,0,1,5.48,3.87c3,2.58,4.9,4.14,5.74,6.75a10.86,10.86,0,0,1-.71,7.79" transform="translate(-164.72 -45.83)" fill="none" stroke="#231f20" stroke-miterlimit="10"/></g><g id="ID_71" data-name="ID 71"><path d="M559.58,786.61c-3.78.2-8.92.44-15,.63-10,.31-11.19.15-12.51-.63-6-3.51-5.36-14.46-4.7-26.27.81-14.4,1.43-25.39,9.39-30.65.52-.34,6.85-4.39,13.13-2.19,3.46,1.22,5.29,3.76,8.13,7.82a63,63,0,0,1,8.45,18.45c.33,1.16,1.16,6.71,2.81,17.83.72,4.82,1.05,7.28-.31,9.7C566.76,785.2,561.8,786.28,559.58,786.61Z" transform="translate(-164.72 -45.83)" fill="#fff" stroke="#231f20" stroke-miterlimit="10"/><path d="M542.29,780.83l13.45-.32" transform="translate(-164.72 -45.83)" fill="none" stroke="#231f20" stroke-miterlimit="10"/></g><g id="ID_81" data-name="ID 81"><path d="M517,734.7c3.68,8.27,4.8,16.66,6,25.64,1.4,11.06,2.11,16.69,0,20.33a14.42,14.42,0,0,1-7.2,6.57c-1.91.74-2.74.47-8.75.31-9.49-.24-10.73.33-15-.62-3.72-.83-5.58-1.24-7.19-2.51-5.25-4.12-4.37-13.12-3.44-22.51.76-7.7,1.71-16.37,7.51-25.34,3.1-4.8,6.16-9.55,11.88-10.63A15.42,15.42,0,0,1,513.92,730,14.53,14.53,0,0,1,517,734.7Z" transform="translate(-164.72 -45.83)" fill="#fff" stroke="#231f20" stroke-miterlimit="10"/><path d="M494.9,779.73c2.09.48,4.39.92,6.88,1.25,2.7.36,5.21.55,7.5.63" transform="translate(-164.72 -45.83)" fill="none" stroke="#231f20" stroke-miterlimit="10"/></g><g id="ID_82" data-name="ID 82"><path d="M465.44,780.67a86.77,86.77,0,0,1-16.89-2.19c-8.17-1.88-9.78-3.48-10.32-4.06-4.63-5-2.45-13.9-.94-20,1.64-6.65,4.29-11,7.82-16.89,3.86-6.39,5.94-9.74,10.32-12.2,1.87-1,6.57-3.67,12.2-2.19,6.43,1.71,9.27,7.54,9.69,8.45.79,1.69,1.06,4.38,1.57,9.69a99.45,99.45,0,0,1,.62,11.26,59.38,59.38,0,0,1-1.25,13.14c-1,4.58-1.53,6.93-3.44,9.38A16.52,16.52,0,0,1,465.44,780.67Z" transform="translate(-164.72 -45.83)" fill="#fff" stroke="#231f20" stroke-miterlimit="10"/><path d="M448.47,768.82A19.9,19.9,0,0,0,462.23,772" transform="translate(-164.72 -45.83)" fill="none" stroke="#231f20" stroke-miterlimit="10"/></g><g id="ID_83" data-name="ID 83"><path d="M418.21,766.6c-1.38,0-16.43-.65-22.2-11.89-3.52-6.84-1.67-13.87-.63-17.82,3.05-11.58,11.44-17.73,21-24.71,3.81-2.8,7.19-4.71,11.57-5,1.61-.1,7-.46,10.63,3.13,2.66,2.63,3,6,3.44,10.64.35,3.57.07,5.93-.94,14.07-1,8.43-1.57,12.66-1.74,13.27-1.35,4.91-3.3,12-9.51,15.81C425.44,766.78,421,766.67,418.21,766.6Z" transform="translate(-164.72 -45.83)" fill="#fff" stroke="#231f20" stroke-miterlimit="10"/><path d="M423.73,755.34a24.81,24.81,0,0,1-4.94.11,26.43,26.43,0,0,1-13.32-5" transform="translate(-164.72 -45.83)" fill="none" stroke="#231f20" stroke-miterlimit="10"/></g><g id="ID_72" data-name="ID 72"><path d="M611,775c-2.34.86-5.9,2.08-10.32,3.28-9.43,2.59-14.16,3.65-18.29,2.35-6-1.88-9.21-7.1-10.32-8.91-1.58-2.55-2.77-6-1.41-23.93,1.32-17.38,2.94-19.87,4.69-21.58,3.52-3.43,10-6.14,16-3.75,2,.8,3.5,2,7,6.57,4.49,5.75,7.7,9.87,11.26,17.35,4.82,10.15,7.85,16.53,5.31,23A15.32,15.32,0,0,1,611,775Z" transform="translate(-164.72 -45.83)" fill="#fff" stroke="#231f20" stroke-miterlimit="10"/><path d="M601.5,768.16a29.16,29.16,0,0,1-14.94,4.64" transform="translate(-164.72 -45.83)" fill="none" stroke="#231f20" stroke-miterlimit="10"/></g><g id="ID_75" data-name="ID 75"><path d="M690.21,615.19c2.91,1.12,7.35,2.74,12.89,4.38,8,2.4,9.26,2.14,12.12,3.67,8.95,4.77,11.86,15.17,12.19,16.42,2.46,9.27-.88,16.85-3.37,22.51-2.78,6.34-6,13.69-13.33,16.55-5.78,2.27-11,.5-21.16-3-10.8-3.68-17.65-8.76-23.07-12.85-5.86-4.43-8.82-6.72-10.09-10.4-2.19-6.35.8-12.66,3.77-19,2.6-5.51,5-10.6,10.72-14.41C678.72,613.93,687.28,614.76,690.21,615.19Z" transform="translate(-164.72 -45.83)" fill="#fff" stroke="#231f20" stroke-miterlimit="10"/><path d="M702.17,639.65a12.25,12.25,0,0,0-6,2.44c-3.23,2.53-5.89,7.45-4.31,12.1a10.25,10.25,0,0,0,4.3,5.22" transform="translate(-164.72 -45.83)" fill="none" stroke="#231f20" stroke-miterlimit="10"/><path d="M694.42,635a19.94,19.94,0,0,1,.8,3.84c.23,2,.71,6.27-1.39,10-2.86,5.12-8.77,6.32-9.81,6.51" transform="translate(-164.72 -45.83)" fill="none" stroke="#231f20" stroke-miterlimit="10"/></g><g id="ID_74" data-name="ID 74"><path d="M698.12,684.72a30.75,30.75,0,0,1,4,19.33c-2.13,16.25-17.14,23.92-19.32,25-3.23,1.65-8.38,4.28-14.75,3.39-3.39-.47-4.85-1.63-14.63-8.34-14.1-9.67-16-10.66-18.67-14.46-1.77-2.53-4.77-6.79-5.41-12.91-1.17-11.26,6.59-19.88,10.88-24.64,3.49-3.88,6.42-7.13,11.34-8.34,4.74-1.16,8.74.21,16.12,3.4C685.57,674.94,694.53,678.81,698.12,684.72Z" transform="translate(-164.72 -45.83)" fill="#fff" stroke="#231f20" stroke-miterlimit="10"/><path d="M670.91,687.61a13.07,13.07,0,0,1,1.52,8c-.13.94-.87,6.22-5.59,8.77a11.21,11.21,0,0,1-8.39.73" transform="translate(-164.72 -45.83)" fill="none" stroke="#231f20" stroke-miterlimit="10"/><path d="M681.2,694.64a9.14,9.14,0,0,0-6.23.08c-4.54,1.86-5.82,7.64-6.52,10.77a24.24,24.24,0,0,0-.49,7" transform="translate(-164.72 -45.83)" fill="none" stroke="#231f20" stroke-miterlimit="10"/></g><g id="ID_84" data-name="ID 84"><path d="M393.1,667.59c9.56.93,16.09,7.1,18.16,9.26a31.31,31.31,0,0,1,8.45,17.84c.48,3.91,2,12.9-3.22,18.12a12.1,12.1,0,0,1-4,2.61C398.83,721.21,397.91,732.34,387,736a24.09,24.09,0,0,1-12.95.44c-12.41-2.7-18.68-13.89-20.94-17.92-2.75-4.92-6.3-11.25-4.73-18.65.44-2.07,1.76-6.48,12.11-15.25C373.8,673.33,381.86,666.49,393.1,667.59Z" transform="translate(-164.72 -45.83)" fill="#fff" stroke="#231f20" stroke-miterlimit="10"/><path d="M383.12,690.22a20,20,0,0,0-1.35,7.95c.1,2.82.23,6.58,2.42,7.78,2.45,1.35,5.11-1.81,9.18-.62a8.36,8.36,0,0,1,3.6,2.27" transform="translate(-164.72 -45.83)" fill="none" stroke="#231f20" stroke-miterlimit="10"/><path d="M374.27,698.79a15.47,15.47,0,0,1,4.71.82c4.18,1.45,9.37,5.37,9.62,10.65a9.14,9.14,0,0,1-.76,4" transform="translate(-164.72 -45.83)" fill="none" stroke="#231f20" stroke-miterlimit="10"/></g><g id="ID_85" data-name="ID 85"><path d="M330.37,632.64a156.5,156.5,0,0,1,15.29-6.42c7.45-2.69,11.27-4,15.33-3.75,8.19.55,13.88,5.63,16.2,7.69a34.52,34.52,0,0,1,9,13.26c2.06,4.92,4.38,10.47,2.41,16.2-1,3-2.71,4.62-6,7.78-7.73,7.42-11.6,6.54-21.57,14.31-4.37,3.4-5.14,4.75-8.19,5.62-5.72,1.61-11.07-.84-14-2.18a34.12,34.12,0,0,1-13.22-11.23c-2.66-3.73-9.91-13.9-6.64-26C321.31,639.33,327.76,634.41,330.37,632.64Z" transform="translate(-164.72 -45.83)" fill="#fff" stroke="#231f20" stroke-miterlimit="10"/><path d="M352,640.79a24.06,24.06,0,0,0-.65,7.67c.31,4,.46,8.65,3.81,11.27.72.56,3.09,2.21,7.43,1.75" transform="translate(-164.72 -45.83)" fill="none" stroke="#231f20" stroke-miterlimit="10"/><path d="M343.58,645.83a27.77,27.77,0,0,1,4.41,2.62c2.79,2,5.66,4.13,6.67,7.45,1.49,4.9-2,9.64-2.58,10.45" transform="translate(-164.72 -45.83)" fill="none" stroke="#231f20" stroke-miterlimit="10"/></g><g id="ID_73" data-name="ID 73"><path d="M653.72,755.81a38.58,38.58,0,0,1-10.79,6.56c-4.12,1.65-14.3,5.73-22,1.41-5.58-3.11-7.16-9.42-10.32-22-2-7.88-3.91-16-.94-25.33,1.32-4.14,2.72-8.53,6.57-10.32,6.4-3,14.89,3.41,21.57,8.44a56.62,56.62,0,0,1,15.49,17.83c3.19,5.81,6.34,11.73,4.22,17.83A14.22,14.22,0,0,1,653.72,755.81Z" transform="translate(-164.72 -45.83)" fill="#fff" stroke="#231f20" stroke-miterlimit="10"/><path d="M648.06,750.66a29.16,29.16,0,0,1-14.94,4.64" transform="translate(-164.72 -45.83)" fill="none" stroke="#231f20" stroke-miterlimit="10"/></g></svg>